<?xml version="1.0" standalone="no"?>
<!DOCTYPE svg PUBLIC "-//W3C//DTD SVG 20010904//EN"
 "http://www.w3.org/TR/2001/REC-SVG-20010904/DTD/svg10.dtd">
<svg version="1.0" xmlns="http://www.w3.org/2000/svg"
 width="373.000000pt" height="373.000000pt" viewBox="0 0 373.000000 373.000000"
 preserveAspectRatio="xMidYMid meet">
<metadata>
Created by potrace 1.11, written by Peter Selinger 2001-2013
</metadata>
<g transform="translate(0.000000,373.000000) scale(0.100000,-0.100000)"
fill="#000000" stroke="none">
<path d="M1866 3104 c105 -103 163 -186 260 -373 108 -210 177 -268 324 -274
81 -3 90 -11 90 -72 0 -87 -77 -144 -180 -132 -67 8 -92 23 -260 147 -185 137
-291 206 -423 274 -290 149 -584 224 -887 227 l-145 1 -69 -78 c-94 -109 -197
-266 -261 -398 -161 -336 -221 -742 -160 -1101 8 -49 15 -96 15 -102 0 -10
-24 -13 -85 -13 l-85 0 0 -470 0 -470 1865 0 1865 0 0 470 0 470 -276 0 c-259
0 -276 1 -269 18 54 132 71 253 56 382 -20 164 -90 312 -194 412 -72 69 -122
97 -257 144 -9 3 1 15 34 36 46 30 50 31 92 20 63 -17 141 -15 174 5 125 74
82 344 -95 588 -64 89 -144 185 -154 185 -3 0 -6 -37 -6 -83 0 -77 -2 -87 -32
-133 -62 -94 -95 -167 -100 -219 -7 -66 16 -147 58 -205 35 -48 33 -59 -15
-94 -19 -15 -42 -20 -81 -20 -30 0 -57 2 -60 5 -3 3 2 23 11 45 12 28 15 57
11 104 -4 48 0 79 13 120 15 45 17 64 9 100 -16 72 -69 158 -147 242 -161 171
-416 295 -662 323 l-64 7 90 -88z m-230 -790 c118 -56 185 -152 199 -285 l6
-67 42 -6 c89 -13 218 18 412 99 164 68 245 80 360 49 91 -23 105 -36 105 -92
1 -137 59 -280 194 -471 78 -112 155 -250 171 -308 l6 -23 -136 0 c-100 0
-137 3 -139 13 -39 135 -105 319 -146 403 -80 165 -161 233 -306 253 -82 12
-235 -3 -284 -28 -61 -31 -101 -114 -86 -176 6 -24 10 -25 77 -25 178 0 226
-86 239 -433 0 -4 -84 -6 -187 -5 l-188 3 -38 75 c-21 41 -40 92 -44 112 -8
56 5 122 34 165 24 34 54 150 65 248 3 27 0 30 -22 27 -45 -6 -109 -43 -140
-80 -17 -20 -30 -40 -30 -44 0 -4 12 -24 26 -45 22 -33 25 -46 22 -99 -5 -74
-33 -133 -127 -264 l-68 -95 -103 -3 c-76 -2 -106 1 -112 10 -13 22 -9 160 7
223 40 151 118 251 222 281 46 13 71 29 118 75 33 32 57 60 54 63 -3 4 -30 2
-59 -4 -29 -5 -85 -10 -124 -10 -91 0 -156 30 -223 104 -99 109 -143 236 -143
417 l0 108 148 -71 c81 -38 170 -81 198 -94z m380 -1314 c42 -15 37 -3 170
-350 25 -63 49 -126 55 -139 5 -13 8 -26 5 -29 -14 -14 -34 13 -60 82 l-29 76
-149 0 c-125 0 -148 2 -148 15 0 13 22 15 140 15 77 0 140 3 140 7 0 9 -89
232 -106 265 -8 15 -23 30 -34 33 -40 13 -65 -19 -110 -132 -132 -339 -143
-363 -162 -363 -17 0 -17 2 -2 38 8 20 26 64 39 97 138 359 148 380 189 388
11 2 24 5 27 6 3 0 19 -4 35 -9z m-1376 -15 c0 -13 -28 -15 -195 -15 -195 0
-196 0 -220 -25 -18 -17 -25 -35 -25 -63 0 -52 31 -80 106 -96 346 -75 354
-79 354 -178 0 -69 -18 -102 -62 -117 -18 -6 -112 -11 -224 -11 -166 0 -194 2
-194 15 0 13 29 15 200 15 200 0 201 0 225 25 19 18 25 35 25 70 0 65 -17 77
-156 108 -220 51 -248 59 -276 88 -22 21 -28 37 -28 69 0 49 21 104 47 119 11
6 95 11 221 11 173 0 202 -2 202 -15z m286 7 c6 -4 66 -88 133 -187 67 -99
125 -181 129 -182 4 -1 43 52 87 119 156 238 172 258 205 258 19 0 33 -7 40
-19 6 -12 10 -114 10 -260 0 -206 -2 -241 -15 -241 -12 0 -15 36 -17 243 -3
206 -5 242 -18 242 -8 0 -72 -85 -143 -190 -70 -104 -133 -196 -140 -203 -11
-10 -39 25 -152 193 -77 113 -145 205 -152 205 -10 0 -13 -53 -15 -242 -3
-208 -5 -243 -18 -243 -13 0 -15 33 -18 230 -3 255 2 285 47 285 14 0 31 -4
37 -8z m1946 -3 c29 -16 48 -70 48 -141 0 -116 -29 -168 -92 -168 -16 0 -28
-3 -28 -6 0 -4 67 -95 133 -181 7 -10 4 -13 -11 -13 -15 0 -44 30 -97 100
l-76 101 -152 -3 -152 -3 -3 -97 c-2 -78 -6 -98 -17 -98 -13 0 -15 38 -15 260
l0 260 221 0 c139 0 228 -4 241 -11z m668 -4 c0 -12 -19 -15 -115 -15 l-115 0
0 -245 c0 -211 -2 -245 -15 -245 -13 0 -15 34 -15 245 l0 245 -115 0 c-96 0
-115 3 -115 15 0 13 34 15 245 15 211 0 245 -2 245 -15z"/>
<path d="M2444 957 c-2 -7 -3 -65 -2 -128 l3 -114 194 -3 c250 -3 241 -8 241
128 0 135 10 130 -238 130 -150 0 -194 -3 -198 -13z"/>
</g>
</svg>
