<?xml version="1.0" encoding="UTF-8" standalone="no"?>
<svg
   xmlns:dc="http://purl.org/dc/elements/1.1/"
   xmlns:cc="http://creativecommons.org/ns#"
   xmlns:rdf="http://www.w3.org/1999/02/22-rdf-syntax-ns#"
   xmlns:svg="http://www.w3.org/2000/svg"
   xmlns="http://www.w3.org/2000/svg"
   xmlns:sodipodi="http://sodipodi.sourceforge.net/DTD/sodipodi-0.dtd"
   xmlns:inkscape="http://www.inkscape.org/namespaces/inkscape"
   version="1.0"
   width="373.000000pt"
   height="373.000000pt"
   viewBox="0 0 373.000000 373.000000"
   preserveAspectRatio="xMidYMid meet"
   id="svg2"
   inkscape:version="0.91 r13725"
   sodipodi:docname="smartufba_logo_monochrome.svg">
  <defs
     id="defs14" />
  <sodipodi:namedview
     pagecolor="#ffffff"
     bordercolor="#666666"
     borderopacity="1"
     objecttolerance="10"
     gridtolerance="10"
     guidetolerance="10"
     inkscape:pageopacity="0"
     inkscape:pageshadow="2"
     inkscape:window-width="1362"
     inkscape:window-height="711"
     id="namedview12"
     showgrid="false"
     inkscape:zoom="0.50616622"
     inkscape:cx="48.592931"
     inkscape:cy="209.95876"
     inkscape:window-x="0"
     inkscape:window-y="36"
     inkscape:window-maximized="0"
     inkscape:current-layer="svg2" />
  <metadata
     id="metadata4">
Created by potrace 1.11, written by Peter Selinger 2001-2013
<rdf:RDF>
  <cc:Work
     rdf:about="">
    <dc:format>image/svg+xml</dc:format>
    <dc:type
       rdf:resource="http://purl.org/dc/dcmitype/StillImage" />
  </cc:Work>
</rdf:RDF>
</metadata>
  <g
     id="g4180">
    <rect
       inkscape:export-ydpi="195.15401"
       inkscape:export-xdpi="195.15401"
       y="14.224576"
       x="4.6875513e-07"
       height="331.90677"
       width="372.99997"
       id="rect4142"
       style="opacity:1;fill:none;fill-opacity:1;stroke:none;stroke-width:2.13499999;stroke-miterlimit:4;stroke-dasharray:none;stroke-opacity:1" />
    <path
       inkscape:export-ydpi="195.15401"
       inkscape:export-xdpi="195.15401"
       id="path4144"
       d="M 188.08125,34.725 A 172.32098,164.41842 0 0 0 15.759375,199.14375 172.32098,164.41842 0 0 0 26.5375,256.04218 l 322.98906,0 a 172.32098,164.41842 0 0 0 10.875,-56.89843 A 172.32098,164.41842 0 0 0 188.08125,34.725 Z"
       style="opacity:1;fill:#ffffff;fill-opacity:1;stroke:#000000;stroke-width:2.04387927;stroke-miterlimit:4;stroke-dasharray:none;stroke-opacity:1"
       inkscape:connector-curvature="0" />
    <path
       inkscape:export-ydpi="195.15401"
       inkscape:export-xdpi="195.15401"
       d="m 186.6,62.6 c 10.5,10.3 16.3,18.6 26,37.3 10.8,21 17.7,26.8 32.4,27.4 8.1,0.3 9,1.1 9,7.2 0,8.7 -7.7,14.4 -18,13.2 -6.7,-0.8 -9.2,-2.3 -26,-14.7 C 191.5,119.3 180.9,112.4 167.7,105.6 138.7,90.7 109.3,83.2 79,82.9 l -14.5,-0.1 -6.9,7.8 c -9.4,10.9 -19.7,26.6 -26.1,39.8 -16.1,33.6 -22.1,74.2 -16,110.1 0.8,4.9 1.5,9.6 1.5,10.2 0,1 -2.4,1.3 -8.5,1.3 l -8.5,0 0,47 0,47 186.5,0 186.5,0 0,-47 0,-47 -27.6,0 c -25.9,0 -27.6,-0.1 -26.9,-1.8 5.4,-13.2 7.1,-25.3 5.6,-38.2 -2,-16.4 -9,-31.2 -19.4,-41.2 -7.2,-6.9 -12.2,-9.7 -25.7,-14.4 -0.9,-0.3 0.1,-1.5 3.4,-3.6 4.6,-3 5,-3.1 9.2,-2 6.3,1.7 14.1,1.5 17.4,-0.5 12.5,-7.4 8.2,-34.4 -9.5,-58.8 C 293.1,82.6 285.1,73 284.1,73 c -0.3,0 -0.6,3.7 -0.6,8.3 0,7.7 -0.2,8.7 -3.2,13.3 -6.2,9.4 -9.5,16.7 -10,21.9 -0.7,6.6 1.6,14.7 5.8,20.5 3.5,4.8 3.3,5.9 -1.5,9.4 -1.9,1.5 -4.2,2 -8.1,2 -3,0 -5.7,-0.2 -6,-0.5 -0.3,-0.3 0.2,-2.3 1.1,-4.5 1.2,-2.8 1.5,-5.7 1.1,-10.4 -0.4,-4.8 0,-7.9 1.3,-12 1.5,-4.5 1.7,-6.4 0.9,-10 C 263.3,103.8 258,95.2 250.2,86.8 234.1,69.7 208.6,57.3 184,54.5 l -6.4,-0.7 9,8.8 z m -23,79 c 11.8,5.6 18.5,15.2 19.9,28.5 l 0.6,6.7 4.2,0.6 c 8.9,1.3 21.8,-1.8 41.2,-9.9 16.4,-6.8 24.5,-8 36,-4.9 9.1,2.3 10.5,3.6 10.5,9.2 0.1,13.7 5.9,28 19.4,47.1 7.8,11.2 15.5,25 17.1,30.8 l 0.6,2.3 -13.6,0 c -10,0 -13.7,-0.3 -13.9,-1.3 -3.9,-13.5 -10.5,-31.9 -14.6,-40.3 -8,-16.5 -16.1,-23.3 -30.6,-25.3 -8.2,-1.2 -23.5,0.3 -28.4,2.8 -6.1,3.1 -10.1,11.4 -8.6,17.6 0.6,2.4 1,2.5 7.7,2.5 17.8,0 22.6,8.6 23.9,43.3 0,0.4 -8.4,0.6 -18.7,0.5 l -18.8,-0.3 -3.8,-7.5 c -2.1,-4.1 -4,-9.2 -4.4,-11.2 -0.8,-5.6 0.5,-12.2 3.4,-16.5 2.4,-3.4 5.4,-15 6.5,-24.8 0.3,-2.7 0,-3 -2.2,-2.7 -4.5,0.6 -10.9,4.3 -14,8 -1.7,2 -3,4 -3,4.4 0,0.4 1.2,2.4 2.6,4.5 2.2,3.3 2.5,4.6 2.2,9.9 -0.5,7.4 -3.3,13.3 -12.7,26.4 l -6.8,9.5 -10.3,0.3 c -7.6,0.2 -10.6,-0.1 -11.2,-1 -1.3,-2.2 -0.9,-16 0.7,-22.3 4,-15.1 11.8,-25.1 22.2,-28.1 4.6,-1.3 7.1,-2.9 11.8,-7.5 3.3,-3.2 5.7,-6 5.4,-6.3 -0.3,-0.4 -3,-0.2 -5.9,0.4 -2.9,0.5 -8.5,1 -12.4,1 -9.1,0 -15.6,-3 -22.3,-10.4 C 133.4,166.7 129,154 129,135.9 l 0,-10.8 14.8,7.1 c 8.1,3.8 17,8.1 19.8,9.4 z m 38,131.4 c 4.2,1.5 3.7,0.3 17,35 2.5,6.3 4.9,12.6 5.5,13.9 0.5,1.3 0.8,2.6 0.5,2.9 -1.4,1.4 -3.4,-1.3 -6,-8.2 l -2.9,-7.6 -14.9,0 c -12.5,0 -14.8,-0.2 -14.8,-1.5 0,-1.3 2.2,-1.5 14,-1.5 7.7,0 14,-0.3 14,-0.7 0,-0.9 -8.9,-23.2 -10.6,-26.5 -0.8,-1.5 -2.3,-3 -3.4,-3.3 -4,-1.3 -6.5,1.9 -11,13.2 -13.2,33.9 -14.3,36.3 -16.2,36.3 -1.7,0 -1.7,-0.2 -0.2,-3.8 0.8,-2 2.6,-6.4 3.9,-9.7 13.8,-35.9 14.8,-38 18.9,-38.8 1.1,-0.2 2.4,-0.5 2.7,-0.6 0.3,0 1.9,0.4 3.5,0.9 z M 64,274.5 c 0,1.3 -2.8,1.5 -19.5,1.5 -19.5,0 -19.6,0 -22,2.5 -1.8,1.7 -2.5,3.5 -2.5,6.3 0,5.2 3.1,8 10.6,9.6 34.6,7.5 35.4,7.9 35.4,17.8 0,6.9 -1.8,10.2 -6.2,11.7 C 58,324.5 48.6,325 37.4,325 20.8,325 18,324.8 18,323.5 c 0,-1.3 2.9,-1.5 20,-1.5 20,0 20.1,0 22.5,-2.5 1.9,-1.8 2.5,-3.5 2.5,-7 0,-6.5 -1.7,-7.7 -15.6,-10.8 -22,-5.1 -24.8,-5.9 -27.6,-8.8 -2.2,-2.1 -2.8,-3.7 -2.8,-6.9 0,-4.9 2.1,-10.4 4.7,-11.9 1.1,-0.6 9.5,-1.1 22.1,-1.1 17.3,0 20.2,0.2 20.2,1.5 z m 28.6,-0.7 c 0.6,0.4 6.6,8.8 13.3,18.7 6.7,9.9 12.5,18.1 12.9,18.2 0.4,0.1 4.3,-5.2 8.7,-11.9 C 143.1,275 144.7,273 148,273 c 1.9,0 3.3,0.7 4,1.9 0.6,1.2 1,11.4 1,26 0,20.6 -0.2,24.1 -1.5,24.1 -1.2,0 -1.5,-3.6 -1.7,-24.3 -0.3,-20.6 -0.5,-24.2 -1.8,-24.2 -0.8,0 -7.2,8.5 -14.3,19 -7,10.4 -13.3,19.6 -14,20.3 -1.1,1 -3.9,-2.5 -15.2,-19.3 C 96.8,285.2 90,276 89.3,276 c -1,0 -1.3,5.3 -1.5,24.2 -0.3,20.8 -0.5,24.3 -1.8,24.3 -1.3,0 -1.5,-3.3 -1.8,-23 -0.3,-25.5 0.2,-28.5 4.7,-28.5 1.4,0 3.1,0.4 3.7,0.8 z m 194.6,0.3 c 2.9,1.6 4.8,7 4.8,14.1 0,11.6 -2.9,16.8 -9.2,16.8 -1.6,0 -2.8,0.3 -2.8,0.6 0,0.4 6.7,9.5 13.3,18.1 0.7,1 0.4,1.3 -1.1,1.3 -1.5,0 -4.4,-3 -9.7,-10 l -7.6,-10.1 -15.2,0.3 -15.2,0.3 -0.3,9.7 c -0.2,7.8 -0.6,9.8 -1.7,9.8 -1.3,0 -1.5,-3.8 -1.5,-26 l 0,-26 22.1,0 c 13.9,0 22.8,0.4 24.1,1.1 z m 66.8,0.4 c 0,1.2 -1.9,1.5 -11.5,1.5 l -11.5,0 0,24.5 c 0,21.1 -0.2,24.5 -1.5,24.5 -1.3,0 -1.5,-3.4 -1.5,-24.5 l 0,-24.5 -11.5,0 c -9.6,0 -11.5,-0.3 -11.5,-1.5 0,-1.3 3.4,-1.5 24.5,-1.5 21.1,0 24.5,0.2 24.5,1.5 z"
       id="path8"
       inkscape:connector-curvature="0"
       style="fill:#000000;stroke:none" />
    <path
       inkscape:export-ydpi="195.15401"
       inkscape:export-xdpi="195.15401"
       d="m 244.4,277.3 c -0.2,0.7 -0.3,6.5 -0.2,12.8 l 0.3,11.4 19.4,0.3 c 25,0.3 24.1,0.8 24.1,-12.8 0,-13.5 1,-13 -23.8,-13 -15,0 -19.4,0.3 -19.8,1.3 z"
       id="path10"
       inkscape:connector-curvature="0"
       style="fill:#000000;stroke:none" />
  </g>
</svg>
